<?xml version="1.0"?>
<svg xmlns="http://www.w3.org/2000/svg" height="512px" viewBox="-45 0 512 512" width="512px"><g><path d="m400.253906 358.445312c-12.367187-14.457031-28.84375-24.746093-47.035156-29.53125v-278.644531c0-27.71875-22.554688-50.269531-50.277344-50.269531h-189.453125c-7.183593 0-14.183593 1.699219-20.480469 4.847656-.03125.015625-.0625.023438-.09375.039063s-.066406.039062-.101562.054687c-.386719.195313-.769531.40625-1.152344.613282-.292968.160156-.589844.316406-.878906.480468-.339844.195313-.679688.398438-1.015625.605469-.332031.199219-.660156.398437-.984375.605469-.296875.191406-.589844.386718-.882812.585937-.359376.238281-.714844.484375-1.0625.734375-.265626.1875-.523438.378906-.785157.570313-.367187.277343-.734375.558593-1.09375.847656-.238281.191406-.476562.378906-.710937.574219-.367188.304687-.730469.621094-1.089844.9375-.21875.195312-.441406.386718-.660156.585937-.363282.332031-.714844.679688-1.066406 1.023438-.203126.199219-.414063.394531-.613282.597656-.421875.429687-.832031.871094-1.238281 1.320313-.109375.121093-.222656.234374-.332031.355468l-27.066406 30.445313-40.605469 45.679687c-.453125.507813-.890625 1.027344-1.320313 1.558594-.109375.136719-.214844.277344-.324218.414062-.296876.378907-.59375.753907-.878907 1.136719-.203125.273438-.398437.554688-.59375.832031-.179687.25-.359375.496094-.53125.75-.246093.363282-.484375.730469-.71875 1.101563-.105469.167969-.214843.332031-.316406.496094-.277344.441406-.539063.890625-.796875 1.34375-.054688.089843-.105469.179687-.15625.269531-.296875.519531-.578125 1.042969-.851562 1.574219-.007813.015625-.015626.03125-.023438.046875-3.296875 6.417968-5.0625 13.570312-5.0625 20.910156v310.820312c0 27.726563 22.554688 50.28125 50.28125 50.28125h211.765625c17.53125 18.460938 41.855469 28.960938 67.453125 28.960938 51.324219 0 93.078125-41.753906 93.078125-93.078125 0-22.175781-7.925781-43.652344-22.324219-60.476563zm-312.847656-322.144531v56.015625c0 3.3125-2.691406 6.007813-6.003906 6.007813h-49.128906l32.898437-37.011719zm-37.125 426.738281c-16.699219 0-30.28125-13.582031-30.28125-30.277343v-310.820313c0-1.21875.113281-2.425781.28125-3.617187h61.121094c14.339844 0 26.003906-11.667969 26.003906-26.007813v-71.578125c1.976562-.480469 4.015625-.738281 6.082031-.738281h189.453125c16.695313 0 30.277344 13.578125 30.277344 30.269531v275.644531c-1.238281-.046874-2.480469-.074218-3.71875-.074218-51.324219 0-93.082031 41.757812-93.082031 93.082031 0 1.238281.035156 2.472656.085937 3.707031.011719.335938.027344.667969.046875 1 .050781 1.046875.121094 2.089844.207031 3.128906.019532.207032.03125.410157.050782.617188.109375 1.214844.246094 2.421875.40625 3.625.039062.308594.085937.617188.128906.925781.136719.96875.289062 1.941407.457031 2.90625.050781.289063.097657.582031.148438.871094.21875 1.1875.457031 2.367187.722656 3.542969.054687.253906.117187.5.175781.753906.222656.964844.464844 1.921875.71875 2.878906.085938.328125.171875.652344.261719.980469.324219 1.15625.664063 2.3125 1.03125 3.457031.039063.128906.085937.25.125.378906.335937 1.035157.695313 2.0625 1.066406 3.085938.121094.332031.246094.664062.371094.992188.367187.976562.75 1.945312 1.148437 2.90625.074219.171874.140626.34375.210938.515624.464844 1.101563.957031 2.1875 1.464844 3.269532.144531.308594.292968.617187.445312.925781.417969.867187.847656 1.722656 1.292969 2.578125.132813.257812.261719.515625.402344.773438.050781.097656.101562.199218.15625.300781h-197.261719zm279.21875 28.960938c-21.332031 0-41.535156-9.285156-55.441406-25.480469-11.375-13.222656-17.636719-30.125-17.636719-47.597656 0-40.296875 32.78125-73.082031 73.078125-73.082031 4.050781 0 8.109375.335937 12.082031 1.003906 35.34375 5.867188 60.996094 36.179688 60.996094 72.078125 0 40.292969-32.78125 73.078125-73.078125 73.078125zm0 0" data-original="#000000" class="active-path" data-old_color="#000000" fill="#000000"/><path d="m100.835938 173.203125h158.539062c5.523438 0 10-4.476563 10-10s-4.476562-10-10-10h-158.539062c-5.523438 0-10 4.476563-10 10s4.476562 10 10 10zm0 0" data-original="#000000" class="active-path" data-old_color="#000000" fill="#000000"/><path d="m100.835938 246.753906h158.539062c5.523438 0 10-4.476562 10-10 0-5.523437-4.476562-10-10-10h-158.539062c-5.523438 0-10 4.476563-10 10 0 5.523438 4.476562 10 10 10zm0 0" data-original="#000000" class="active-path" data-old_color="#000000" fill="#000000"/><path d="m259.375 300.308594h-118.511719c-5.523437 0-10 4.476562-10 10 0 5.519531 4.476563 10 10 10h118.511719c5.523438 0 10-4.480469 10-10 0-5.523438-4.476562-10-10-10zm0 0" data-original="#000000" class="active-path" data-old_color="#000000" fill="#000000"/><path d="m100.835938 300.308594c-5.523438 0-9.988282 4.476562-9.988282 10 0 5.519531 4.492188 10 10.015625 10 5.523438 0 10-4.480469 10-10 0-5.523438-4.476562-10-10-10zm0 0" data-original="#000000" class="active-path" data-old_color="#000000" fill="#000000"/><path d="m215.167969 373.859375h-114.332031c-5.523438 0-10 4.476563-10 10s4.476562 10 10 10h114.332031c5.519531 0 10-4.476563 10-10s-4.480469-10-10-10zm0 0" data-original="#000000" class="active-path" data-old_color="#000000" fill="#000000"/><path d="m364.144531 384.273438c-3.90625-3.90625-10.234375-3.90625-14.140625 0l-20.507812 20.503906-20.507813-20.503906c-3.902343-3.90625-10.234375-3.90625-14.140625 0-3.90625 3.902343-3.90625 10.234374 0 14.140624l20.503906 20.507813-20.503906 20.503906c-3.90625 3.90625-3.90625 10.238281 0 14.144531 1.953125 1.953126 4.511719 2.929688 7.070313 2.929688 2.558593 0 5.117187-.976562 7.070312-2.929688l20.507813-20.507812 20.503906 20.507812c1.953125 1.953126 4.511719 2.929688 7.070312 2.929688 2.5625 0 5.121094-.976562 7.074219-2.929688 3.902344-3.90625 3.902344-10.238281 0-14.144531l-20.503906-20.503906 20.503906-20.507813c3.90625-3.90625 3.90625-10.238281 0-14.140624zm0 0" data-original="#000000" class="active-path" data-old_color="#000000" fill="#000000"/></g> </svg>
