<?xml version="1.0"?>
<svg xmlns="http://www.w3.org/2000/svg" xmlns:xlink="http://www.w3.org/1999/xlink" version="1.1" id="Capa_1" x="0px" y="0px" viewBox="0 0 512.005 512.005" style="enable-background:new 0 0 512.005 512.005;" xml:space="preserve" width="512px" height="512px"><g><g>
	<g>
		<path d="M440.878,64.609l-181.333-64c-2.292-0.813-4.792-0.813-7.083,0l-181.333,64c-4.271,1.51-7.125,5.542-7.125,10.063v128    c0,165.646,24.563,226.188,187.188,308.188c1.521,0.76,3.167,1.146,4.813,1.146s3.292-0.385,4.813-1.146    c162.625-82,187.188-142.542,187.188-308.188v-128C448.003,70.151,445.148,66.12,440.878,64.609z M338.211,301.797    c4.167,4.167,4.167,10.917,0,15.083c-2.083,2.083-4.813,3.125-7.542,3.125c-2.729,0-5.458-1.042-7.542-3.125l-67.125-67.125    l-67.125,67.125c-2.083,2.083-4.813,3.125-7.542,3.125c-2.729,0-5.458-1.042-7.542-3.125c-4.167-4.167-4.167-10.917,0-15.083    l67.125-67.125l-67.125-67.125c-4.167-4.167-4.167-10.917,0-15.083c4.167-4.167,10.917-4.167,15.083,0l67.125,67.125    l67.125-67.125c4.167-4.167,10.917-4.167,15.083,0c4.167,4.167,4.167,10.917,0,15.083l-67.125,67.125L338.211,301.797z" data-original="#000000" class="active-path" data-old_color="#000000" fill="#FF0000"/>
	</g>
</g></g> </svg>
